<?xml version="1.0" standalone="no"?>
<!DOCTYPE svg PUBLIC "-//W3C//DTD SVG 20010904//EN"
 "http://www.w3.org/TR/2001/REC-SVG-20010904/DTD/svg10.dtd">
<svg version="1.0" xmlns="http://www.w3.org/2000/svg"
 width="1024.000000pt" height="1024.000000pt" viewBox="0 0 1024.000000 1024.000000"
 preserveAspectRatio="xMidYMid meet">

<g transform="translate(0.000000,1024.000000) scale(0.100000,-0.100000)"
fill="#000000" stroke="none">
<path d="M5057 9040 c-14 -11 -42 -51 -63 -88 -189 -340 -596 -682 -1034 -870
-371 -159 -729 -222 -1266 -222 -281 0 -283 0 -298 -22 -14 -20 -16 -167 -16
-1373 0 -840 4 -1393 10 -1465 37 -410 157 -799 357 -1151 165 -291 297 -466
527 -695 244 -242 451 -400 771 -589 83 -48 204 -119 270 -158 369 -216 618
-422 757 -626 l57 -83 47 73 c56 89 231 266 364 368 126 97 264 187 560 364
449 268 616 392 870 646 258 258 440 507 594 810 125 246 188 426 252 723 49
229 47 147 51 1692 3 1319 2 1450 -12 1466 -15 16 -47 18 -358 23 -454 6 -664
37 -985 143 -504 165 -963 493 -1200 855 -32 48 -68 106 -82 129 -41 69 -120
92 -173 50z m299 -690 c526 -503 1205 -774 1994 -796 107 -3 201 -7 208 -10
10 -3 12 -256 9 -1301 -1 -714 -6 -1314 -10 -1333 -4 -19 -15 -80 -23 -135
-59 -367 -224 -735 -489 -1093 -91 -123 -386 -424 -515 -526 -135 -107 -353
-250 -655 -431 -386 -231 -545 -345 -694 -499 l-55 -55 -90 87 c-168 161 -323
271 -701 492 -362 212 -559 350 -762 532 -350 315 -626 722 -762 1125 -51 148
-96 352 -111 492 -6 66 -10 560 -10 1376 l0 1272 208 6 c815 25 1536 320 2033
833 52 55 117 127 143 161 l48 62 72 -87 c40 -48 113 -125 162 -172z"/>
<path d="M5056 8114 c-227 -248 -670 -523 -1101 -684 -320 -119 -572 -171
-847 -173 l-148 -2 0 -1131 c0 -1073 1 -1135 19 -1235 41 -224 99 -402 192
-599 118 -246 251 -438 438 -632 203 -211 407 -360 811 -591 365 -209 498
-298 636 -429 l71 -68 79 77 c132 128 262 216 629 425 396 226 541 328 745
525 336 323 551 699 658 1148 61 253 61 263 62 1358 0 549 -3 1034 -6 1078
l-7 80 -26 -6 c-43 -9 -334 14 -449 36 -589 112 -1226 430 -1583 789 l-106
107 -67 -73z m100 -325 c37 -41 186 -151 324 -240 452 -291 1028 -504 1493
-554 l57 -6 0 -937 c0 -1013 -3 -1086 -54 -1282 -35 -136 -69 -227 -141 -377
-109 -228 -228 -393 -420 -585 -189 -189 -324 -286 -710 -508 -265 -152 -394
-233 -498 -311 -43 -33 -81 -59 -84 -59 -3 0 -35 23 -70 51 -93 73 -295 202
-458 294 -461 257 -715 452 -923 707 -226 278 -383 626 -431 958 -10 67 -20
2034 -11 2043 3 3 46 11 95 17 561 70 1263 374 1720 744 44 35 83 65 86 65 3
1 14 -8 25 -20z"/>
<path d="M4892 6963 c-19 -9 -36 -22 -39 -30 -3 -7 -9 -10 -15 -7 -5 3 -15 -2
-22 -12 -9 -11 -15 -13 -20 -6 -4 6 -14 8 -23 5 -9 -4 -21 1 -29 12 -11 15
-17 16 -26 7 -7 -7 -23 -12 -36 -12 -15 0 -26 -7 -29 -20 -3 -11 -12 -20 -19
-20 -8 0 -14 -6 -14 -14 0 -11 -10 -14 -34 -13 -19 2 -38 6 -42 10 -20 20 -65
-11 -93 -64 -13 -24 -25 -33 -47 -34 -16 -1 -34 2 -41 7 -14 11 -53 -7 -53
-25 0 -7 -9 -30 -20 -52 -19 -36 -24 -40 -63 -40 -53 -1 -70 -11 -64 -37 3
-11 -3 -35 -14 -54 -10 -19 -20 -37 -21 -42 -2 -4 -10 -6 -18 -5 -8 1 -27 -7
-42 -18 -24 -18 -26 -23 -15 -41 8 -14 9 -22 1 -24 -5 -3 -9 -22 -8 -44 1 -26
-2 -40 -10 -40 -7 0 -24 -13 -39 -28 -24 -25 -26 -30 -13 -48 10 -13 11 -23 4
-31 -7 -9 -7 -13 0 -13 15 0 9 -53 -8 -67 -8 -7 -11 -13 -7 -13 5 0 -1 -12
-12 -27 -18 -22 -19 -29 -8 -42 7 -9 19 -29 27 -46 8 -16 19 -33 24 -37 6 -4
5 -12 -2 -21 -7 -8 -12 -19 -10 -23 1 -5 -3 -19 -10 -31 -11 -20 -10 -24 8
-35 25 -15 51 -69 75 -153 24 -85 91 -224 162 -335 130 -205 157 -283 156
-450 -1 -135 -17 -221 -68 -350 -20 -52 -39 -102 -41 -111 -4 -12 68 -63 295
-210 166 -107 378 -245 472 -306 94 -62 174 -113 178 -113 4 0 22 36 40 80 36
90 111 209 171 274 38 42 42 51 57 143 9 54 19 102 23 106 4 5 16 4 26 -1 115
-62 313 -122 399 -122 60 0 147 24 176 48 36 30 62 102 64 175 1 37 -1 67 -5
67 -3 0 -12 21 -19 47 -6 26 -18 55 -26 63 -8 8 -19 35 -26 60 -12 45 -12 45
25 82 41 41 46 77 17 122 -19 29 -19 29 0 55 11 15 22 50 26 79 6 56 -4 77
-44 93 -13 5 -28 21 -34 36 -9 23 -7 30 8 38 42 23 93 83 93 109 0 37 -11 55
-101 173 -78 101 -91 127 -66 136 7 3 6 6 -5 6 -29 2 -30 18 -3 70 14 28 25
67 25 88 0 25 -31 110 -91 252 l-92 216 6 112 c5 83 3 113 -6 116 -9 3 -9 7 1
20 11 13 9 19 -10 37 -15 14 -30 19 -45 15 -18 -4 -23 -1 -23 15 0 11 -5 20
-11 20 -6 0 -9 7 -5 15 3 8 -2 19 -11 23 -10 6 -14 16 -10 26 9 22 -42 48 -66
35 -12 -7 -17 -6 -17 2 0 7 -9 9 -21 6 -15 -4 -23 0 -26 14 -3 10 -11 19 -18
19 -7 0 -15 9 -18 20 -3 12 -14 20 -27 20 -13 0 -28 8 -35 17 -10 13 -16 15
-26 6 -19 -15 -70 -13 -76 3 -3 8 -14 14 -24 14 -10 0 -19 6 -19 13 0 6 -17
17 -37 24 -32 10 -39 9 -49 -5 -7 -9 -16 -14 -20 -10 -4 4 -14 2 -22 -5 -12
-9 -16 -9 -19 1 -3 6 -13 12 -24 12 -10 0 -19 7 -19 15 0 25 -109 25 -123 -1
-4 -8 -13 -11 -19 -8 -6 4 -14 1 -18 -7 -7 -10 -11 -10 -24 0 -8 7 -20 10 -26
6 -6 -4 -18 3 -28 14 -16 20 -18 20 -50 4z m900 -610 c10 -10 4 -13 -26 -13
-27 0 -37 -4 -33 -12 3 -7 37 -88 76 -180 39 -92 71 -173 71 -181 0 -32 -24
-34 -164 -16 -124 16 -143 16 -168 3 -30 -15 -216 -173 -256 -216 l-23 -25 93
-8 c210 -16 307 -41 216 -55 -59 -9 -12 -22 70 -19 42 2 82 0 89 -4 7 -4 39
20 80 63 40 40 77 70 88 70 13 0 33 -20 57 -59 21 -32 67 -100 104 -150 36
-51 63 -99 60 -106 -3 -8 -24 -19 -48 -25 -24 -6 -73 -20 -110 -31 -38 -11
-71 -20 -75 -20 -5 0 -10 15 -13 33 l-6 33 -17 -32 c-19 -36 -15 -74 10 -95 9
-7 45 -17 82 -23 48 -8 67 -16 69 -28 2 -10 -3 -17 -11 -17 -9 0 -61 -23 -116
-51 -96 -48 -155 -93 -194 -149 l-17 -25 6 35 c4 19 12 47 20 61 12 25 11 30
-15 65 -48 66 -183 187 -261 235 -41 25 -129 75 -194 110 -80 42 -140 83 -180
121 -33 32 -62 58 -63 58 -1 0 -12 -28 -25 -62 -22 -60 -23 -61 -26 -30 -11
116 134 311 292 393 36 19 66 40 66 47 0 7 -7 26 -15 42 -15 28 -19 30 -79 30
-82 0 -265 -33 -394 -72 -109 -32 -146 -32 -71 0 122 53 313 103 447 118 34 3
62 8 62 9 0 1 -11 28 -25 59 -14 31 -25 61 -25 67 0 17 86 40 235 62 67 11
344 2 357 -10z m-757 -13 c-3 -5 -20 -10 -37 -10 -49 0 -236 -30 -323 -51
-195 -49 -344 -110 -461 -189 -40 -28 -77 -50 -81 -50 -17 0 77 85 141 128 92
61 218 114 346 145 133 33 139 34 293 36 83 0 126 -3 122 -9z m-390 -584 c55
-25 119 -90 141 -141 12 -30 30 -146 49 -323 l7 -62 -38 -16 c-53 -22 -112
-13 -204 33 -147 71 -240 199 -240 329 0 165 135 250 285 180z m984 20 c-8 -8
-109 -46 -109 -41 0 12 67 45 89 45 13 0 22 -2 20 -4z m510 -582 c2 -2 -1 -10
-8 -18 -8 -9 -24 -12 -49 -9 -30 4 -58 -6 -146 -47 -60 -28 -111 -49 -113 -46
-8 7 60 54 142 96 71 36 85 40 125 35 25 -4 47 -9 49 -11z m-57 -174 c57 -44
37 -90 -40 -89 -58 0 -214 40 -219 55 -7 21 97 51 183 53 37 1 58 -4 76 -19z
m-1349 -277 c51 -155 90 -353 74 -369 -7 -8 -48 129 -101 340 -40 159 -45 196
-31 196 2 0 28 -75 58 -167z"/>
<path d="M4460 5683 c-38 -34 -52 -89 -40 -155 16 -82 65 -153 136 -194 59
-35 65 -26 10 13 -120 85 -135 254 -25 278 34 8 58 -3 38 -16 -9 -6 -1 -9 24
-9 46 0 48 -12 5 -31 -45 -19 -73 -76 -58 -115 18 -46 39 -63 99 -81 31 -8 67
-24 80 -34 13 -11 34 -19 48 -19 20 0 23 3 17 28 -13 50 -22 67 -57 103 -34
35 -35 37 -24 82 8 39 7 50 -9 79 -11 18 -41 48 -68 66 -65 43 -131 45 -176 5z"/>
<path d="M2780 3154 c-83 -36 -128 -112 -110 -188 25 -110 136 -166 223 -114
22 13 46 37 55 53 10 17 18 32 19 34 2 2 28 -13 58 -34 33 -23 85 -75 127
-129 226 -288 456 -459 966 -720 360 -183 471 -255 602 -386 110 -110 186
-219 258 -370 58 -123 87 -147 162 -137 58 7 84 35 142 152 177 351 340 491
903 772 306 153 454 243 606 369 91 75 224 215 281 293 69 95 173 191 206 191
5 0 15 -14 22 -30 14 -34 53 -65 92 -75 39 -10 108 13 144 49 68 68 66 165 -6
229 -67 62 -135 68 -258 26 -117 -40 -177 -90 -317 -264 -230 -284 -391 -408
-802 -613 -378 -190 -538 -286 -677 -407 -101 -88 -218 -229 -281 -339 -28
-48 -55 -94 -61 -103 -9 -13 -18 -3 -51 58 -124 224 -296 403 -525 545 -51 31
-212 117 -358 190 -491 246 -669 378 -922 685 -135 163 -206 217 -342 258 -80
25 -109 26 -156 5z"/>
<path d="M4388 1711 c-27 -24 -33 -36 -33 -70 0 -104 142 -143 190 -51 29 56
16 109 -35 135 -45 23 -85 19 -122 -14z"/>
<path d="M5745 1728 c-94 -51 -61 -188 45 -188 103 0 141 138 50 185 -34 18
-67 19 -95 3z"/>
</g>
</svg>
